<svg xmlns="http://www.w3.org/2000/svg" id="Layer_1" data-name="Layer 1" viewBox="0 0 500 183.44"><defs><style>      .cls-1 {        fill: #fff;      }      .cls-2 {        isolation: isolate;      }    </style></defs><g class="cls-2"><g class="cls-2"><path class="cls-1" d="M122.75,72.77h8.45l17.85,41.95h-9.58l-3.81-9.34h-17.61l-3.81,9.34h-9.34l17.85-41.95ZM132.39,97.29l-5.53-13.51-5.53,13.51h11.07Z"></path><path class="cls-1" d="M150.96,94.02v-.12c0-11.84,9.22-21.54,21.84-21.54,7.5,0,12.02,2.02,16.37,5.71l-5.77,6.96c-3.21-2.68-6.07-4.22-10.89-4.22-6.67,0-11.96,5.89-11.96,12.97v.12c0,7.62,5.24,13.21,12.62,13.21,3.33,0,6.31-.83,8.63-2.5v-5.95h-9.22v-7.92h18.09v18.09c-4.28,3.63-10.18,6.61-17.79,6.61-12.97,0-21.9-9.1-21.9-21.42Z"></path><path class="cls-1" d="M208.55,81.52h-12.68v-8.45h34.52v8.45h-12.68v33.21h-9.16v-33.21Z"></path><path class="cls-1" d="M237.41,73.07h17.02c9.94,0,15.95,5.89,15.95,14.4v.12c0,9.64-7.5,14.64-16.84,14.64h-6.96v12.5h-9.16v-41.66ZM253.84,94.08c4.58,0,7.26-2.74,7.26-6.31v-.12c0-4.11-2.86-6.31-7.44-6.31h-7.08v12.74h7.26Z"></path></g></g><g><path class="cls-1" d="M69.1,131.6H5.84c-1.76,0-3.42-.88-3.84-2.48l8.45-14.39h48.12s10.54,16.88,10.54,16.88Z"></path><path class="cls-1" d="M79.53,131.67c-1.13-1.14-2.07-2.33-2.92-3.72l-21.15-34.91c-.82-1.37-.76-2.58,0-3.88l8.71-14.84,17.41,28.98,15.01,25.36c-.2,1.06-1.24,2.49-2.05,2.88l-15.01.13h0Z"></path><path class="cls-1" d="M35.1,105.88l-19.82.02,19.98-33.53,12.12-20.13c.94-.48,3.29-.83,3.87.15l7.94,13.29-20.16,33.89-3.93,6.3h0Z"></path></g><g class="cls-2"><g class="cls-2"><path class="cls-1" d="M284.21,94.61v-.12c0-11.1,8.15-20.93,20.29-20.93,6.82,0,11.04,1.97,15.09,5.38l-2.95,3.47c-3.12-2.72-6.59-4.62-12.32-4.62-8.96,0-15.38,7.57-15.38,16.59v.12c0,9.66,6.19,16.82,16.02,16.82,4.62,0,8.9-1.79,11.68-4.05v-10.06h-12.32v-4.1h16.71v16.13c-3.76,3.35-9.42,6.19-16.25,6.19-12.72,0-20.58-9.25-20.58-20.81Z"></path><path class="cls-1" d="M331.33,74.26h17.4c4.97,0,8.96,1.5,11.51,4.05,1.97,1.97,3.12,4.8,3.12,7.98v.12c0,6.71-4.63,10.64-10.99,11.79l12.43,16.54h-5.61l-11.74-15.73h-11.56v15.73h-4.57v-40.47ZM348.33,94.9c6.07,0,10.41-3.12,10.41-8.33v-.12c0-4.97-3.82-7.98-10.35-7.98h-12.49v16.42h12.43Z"></path><path class="cls-1" d="M371.34,94.61v-.12c0-11.16,8.38-20.93,20.7-20.93s20.58,9.65,20.58,20.81v.12c0,11.16-8.38,20.93-20.7,20.93s-20.58-9.65-20.58-20.81ZM407.88,94.61v-.12c0-9.19-6.71-16.71-15.96-16.71s-15.84,7.4-15.84,16.59v.12c0,9.19,6.71,16.71,15.96,16.71s15.84-7.4,15.84-16.59Z"></path><path class="cls-1" d="M421.64,97.79v-23.53h4.57v23.24c0,8.73,4.62,13.64,12.37,13.64s12.2-4.51,12.2-13.36v-23.53h4.57v23.18c0,11.79-6.76,17.92-16.88,17.92s-16.82-6.13-16.82-17.58Z"></path><path class="cls-1" d="M466.16,74.26h15.15c9.13,0,15.15,4.86,15.15,12.83v.12c0,8.73-7.29,13.24-15.9,13.24h-9.83v14.28h-4.57v-40.47ZM480.73,96.29c6.71,0,11.1-3.58,11.1-8.9v-.12c0-5.78-4.34-8.79-10.87-8.79h-10.23v17.81h10Z"></path></g></g></svg>